# xmcd
#
# Track frame offsets:
#	150
#	12613
#	30110
#	42540
#	51468
#	64578
#	73764
#	84088
#	99840
#	110231
#	131130
#	142768
#
# Disc length: 3809 seconds
#
# Revision: 1
# Processed by: cddbd v1.5.2PL0 Copyright (c) Steve Scherf et al.
# Submitted via: audiograbber 1.83.01
#
DISCID=a10edf0c
DTITLE=Die Schmidinger - Mir sag'n ''Griass Di!''
DYEAR=1900
DGENRE=volksmusik
TTITLE0=Mir sag'n ''Griass Di!''
TTITLE1=Geh sitz Di zuwa
TTITLE2=Mir war'n dort no' nia
TTITLE3=Ja mei!
TTITLE4=Schmidinger-Draher
TTITLE5=Dugi-Boarischer
TTITLE6=Einst gin i spazieren
TTITLE7=Auf und nieder
TTITLE8=Hoflusser-Polka
TTITLE9=Der Wilderer vom Ramingtal
TTITLE10=Du bist für mich Luft
TTITLE11=Depperter Bua
EXTD=
EXTT0=
EXTT1=
EXTT2=
EXTT3=
EXTT4=
EXTT5=
EXTT6=
EXTT7=
EXTT8=
EXTT9=
EXTT10=
EXTT11=
PLAYORDER=
